<svg width="768" height="768" xmlns="http://www.w3.org/2000/svg">
  <rect fill="#f0d981" stroke="#000" stroke-width="2" x="0" y="0" width="768" height="768"/>
  <mask id="boundingbox">
    <rect fill="#fff" x="10" y="10" width="748" height="748"/>
  </mask>
  <g mask="url(#boundingbox)">
    <g transform="matrix(0.7660444431189781 0.6427876096865394 -0.6427876096865394 0.7660444431189781 317.0643895697985 -381.0775281344605)">
      <path stroke-width="1.5851827354008703" stroke="#f7f4e9" stroke-linecap="round" fill="None" d="M 5.792591367700435 0 v 316.15779465182726 m 0 90.27202228695897 v 25.865794931039133 m 0 83.79373996583833 v 86.24862253607846 m 0 125.44485329951955 v 133.0689143046712 m 0 95.10741713527051 v 128.29927314847862 m 0 102.44678148024319 v 202.4237504783341 m 0 73.95701262653542 v 128.5090574400437 m 0 72.91464640081915"/>
      <path stroke-width="3.044049043524976" stroke="#f7f4e9" stroke-linecap="round" fill="None" d="M 18.10720725716336 0 v 134.24500724513402 m 0 94.65578640836472 v 282.8776926032493 m 0 120.01270213872922 v 178.3656026361195 m 0 60.498217225649164 v 273.0461988348765 m 0 117.15753922130042 v 89.95080894009011 m 0 93.63334138820224 v 15.196148290470557 m 0 122.94165644022175 v 219.5362295514107 m 0 91.86656481288414"/>
      <path stroke-width="2.6261698130484166" stroke="#f7f4e9" stroke-linecap="round" fill="None" d="M 30.94231668545006 0 v 62.520128835049285 m 0 78.3852845655991 v 141.84642629325623 m 0 99.12856300265123 v 256.57043201584725 m 0 90.80280253637885 v 207.2331041647755 m 0 104.70424787462025 v 273.75737675567575 m 0 75.1538348814041 v 20.813249644779315 m 0 57.069615705465 v 130.3984321511135 m 0 112.67883435221033"/>
      <path stroke-width="5.22701738254829" stroke="#f7f4e9" stroke-linecap="round" fill="None" d="M 44.86891028324841 0 v 460.5320978983511 m 0 56.78461806781738 v 62.27695141877559 m 0 93.7254382137339 v 375.7198140102271 m 0 65.41493138773784 v 57.42403532527751 m 0 74.30336584160415 v 76.14978965560094 m 0 76.40620832399816 v 106.96169155448021 m 0 103.15312455361507 v 46.74787059573585 m 0 93.81213327888128"/>
      <path stroke-width="1.54515476202316" stroke="#f7f4e9" stroke-linecap="round" fill="None" d="M 58.25499635553414 0 v 205.0598135489221 m 0 79.58010473606284 v 83.6384993500276 m 0 77.2871150684819 v 70.25040218918994 m 0 107.57442030047493 v 374.2025211268177 m 0 87.66203457815584 v 22.231180193634785 m 0 52.39702142858691 v 61.457222200964374 m 0 64.52439401777993 v 70.40350287813122 m 0 103.7563598717375 v 357.5829452048063 m 0 77.05394684520671"/>
      <path stroke-width="2.1462082814924184" stroke="#f7f4e9" stroke-linecap="round" fill="None" d="M 70.10067787729193 0 v 79.49012625311522 m 0 70.68473323116449 v 116.09518718557831 m 0 86.62636230543438 v 107.03039872416663 m 0 65.36449228265558 v 334.73389304720575 m 0 115.6422933720752 v 150.27821937249686 m 0 53.54895296451286 v 256.78711345377656 m 0 62.2568566466993 v 30.488326641485926 m 0 55.75646753397635 v 103.58044514225247 m 0 57.79299543608641"/>
      <path stroke-width="2.505938794633023" stroke="#f7f4e9" stroke-linecap="round" fill="None" d="M 82.42675141535464 0 v 241.8978910732528 m 0 67.5248778850346 v 98.69995386370353 m 0 56.823580950771095 v 355.5478573019536 m 0 90.71693331626237 v 247.0060939156104 m 0 58.26169872429079 v 396.6901940368118 m 0 70.57083250148013"/>
      <path stroke-width="3.6635554864375663" stroke="#f7f4e9" stroke-linecap="round" fill="None" d="M 95.51149855588993 0 v 264.44728289545026 m 0 78.80940452591457 v 162.16090750563353 m 0 78.47894501817339 v 222.45051129278974 m 0 114.87603413670956 v 165.14466762141882 m 0 77.14882257824652 v 111.63652185335815 m 0 103.12892874606607 v 33.27477156994675 m 0 63.148377284312296 v 174.87159471573864 m 0 74.18334414261867"/>
      <path stroke-width="5.261436546422943" stroke="#f7f4e9" stroke-linecap="round" fill="None" d="M 109.97399457232018 0 v 127.19186431127648 m 0 64.43494887115423 v 247.90677312063153 m 0 62.30354991369584 v 24.01348312996785 m 0 93.99441043286718 v 185.66161006333994 m 0 83.94356381024647 v 101.69257345864983 m 0 106.20518113625944 v 9.36347798626408 m 0 76.92990786676329 v 231.39332398628363 m 0 123.95568918301838 v 62.99911240138408 m 0 62.44413305758567"/>
      <path stroke-width="2.0443818108764176" stroke="#f7f4e9" stroke-linecap="round" fill="None" d="M 123.62690375096986 0 v 178.6228152639929 m 0 81.2037805114153 v 66.67072329362504 m 0 114.70501996638768 v 144.1803958921544 m 0 140.67099328251257 v 130.07291250370636 m 0 125.08699287345334 v 162.07662726249484 m 0 109.60650316923395 v 178.47201105591947 m 0 92.64102124584407 v 59.19363299934054 m 0 60.984751258219134"/>
      <path stroke-width="2.446580809405026" stroke="#f7f4e9" stroke-linecap="round" fill="None" d="M 135.87238506111058 0 v 120.63745127617412 m 0 98.22964294794068 v 138.4378147730805 m 0 113.8275204364495 v 216.19186069359463 m 0 135.13834800359737 v 327.2011531393568 m 0 83.07212501406428 v 62.71092171117503 m 0 56.227817210346615 v 117.18842997409187 m 0 82.91286648493139 v 336.4022069373182 m 0 85.65805824374618"/>
      <path stroke-width="1.5302782706492766" stroke="#f7f4e9" stroke-linecap="round" fill="None" d="M 147.86081460113772 0 v 132.05409778199217 m 0 75.78550219819356 v 315.8414245169721 m 0 55.847076049188296 v 300.5774642454557 m 0 74.37801878937016 v 112.80275048387948 m 0 54.51795550148106 v 234.3101802815372 m 0 88.05788109731779 v 268.73538167155726 m 0 68.74254821626796"/>
      <path stroke-width="5.499108965899023" stroke="#f7f4e9" stroke-linecap="round" fill="None" d="M 161.37550821941187 0 v 44.4267644304721 m 0 69.99630544594758 v 60.46240358265324 m 0 82.07639035116132 v 232.47222557321084 m 0 60.86566574049843 v 39.721414392780154 m 0 98.20664463060261 v 381.2774136948817 m 0 80.98156626541555 v 350.46130497913185 m 0 91.65530793768842 v 54.064224719833845 m 0 117.85644411021791"/>
      <path stroke-width="1.9195571690372903" stroke="#f7f4e9" stroke-linecap="round" fill="None" d="M 175.08484128688002 0 v 196.4442225005265 m 0 75.5870961235119 v 107.17729746312094 m 0 62.46932395126404 v 298.66464240151146 m 0 124.74722480504856 v 111.89036669229215 m 0 59.11336273688379 v 394.1054200824933 m 0 80.77926563438835 v 127.95304025944154 m 0 72.39292350028076"/>
      <path stroke-width="5.824286052760168" stroke="#f7f4e9" stroke-linecap="round" fill="None" d="M 188.95676289777873 0 v 204.51326106737486 m 0 62.50427376947712 v 88.46650575814036 m 0 91.13497285537626 v 206.85399763622468 m 0 134.07199939428332 v 411.2564521255077 m 0 64.50885636801387 v 64.71872965674945 m 0 90.79096651897845 v 146.86248720276637 m 0 139.4490293044981"/>
      <path stroke-width="1.8998047113008656" stroke="#f7f4e9" stroke-linecap="round" fill="None" d="M 202.81880827980925 0 v 329.0835817921797 m 0 88.83330310941402 v 68.44386989995549 m 0 102.66658882718974 v 44.2874912835367 m 0 100.4610904114249 v 35.426575984434166 m 0 64.66019639790893 v 75.27641756314738 m 0 82.20876435493138 v 71.47297197075713 m 0 61.712583968189115 v 308.1281521171518 m 0 65.3320905530639 v 401.6540211539541 m 0 121.10043838483145"/>
      <path stroke-width="5.072053283725044" stroke="#f7f4e9" stroke-linecap="round" fill="None" d="M 216.3047372773222 0 v 246.75675890818897 m 0 132.8903736214398 v 170.74557328752485 m 0 89.92297686919349 v 252.43196412645324 m 0 59.43449181928041 v 237.5743751667985 m 0 97.1713617881834 v 18.212563459114758 m 0 118.17628596101359 v 50.73990344802994 m 0 70.28846075614057 v 104.72221613102522 m 0 64.90769693691315"/>
      <path stroke-width="1.9058750360995125" stroke="#f7f4e9" stroke-linecap="round" fill="None" d="M 229.7937014372345 0 v 259.7788355934755 m 0 125.74681367638678 v 198.45142532847615 m 0 102.82278882508881 v 246.660925610294 m 0 53.86553149269351 v 119.3607480943972 m 0 78.83445743924095 v 53.064811285316175 m 0 86.73327149232735 v 391.25549274612644 m 0 78.06086856675755"/>
      <path stroke-width="6.8548415614567535" stroke="#f7f4e9" stroke-linecap="round" fill="None" d="M 244.17405973601262 0 v 78.68906817633815 m 0 133.85964876090378 v 190.02125006445888 m 0 81.18460683141852 v 134.64770011387205 m 0 76.60287557002904 v 103.29831323208931 m 0 120.51371165280099 v 8.041672583205965 m 0 110.3059063072099 v 369.0430148493145 m 0 64.02916468457306 v 70.29205825603441 m 0 128.79753143893583"/>
      <path stroke-width="2.277296079382195" stroke="#f7f4e9" stroke-linecap="round" fill="None" d="M 258.74012855643207 0 v 28.068573085380166 m 0 89.14805801462138 v 248.23171703923734 m 0 73.33080518459242 v 275.90748830762107 m 0 133.8862548969312 v 159.28331313116806 m 0 124.7414915088815 v 359.0680216809419 m 0 117.36107079150908 v 151.23279968527856 m 0 116.48148363011114"/>
      <path stroke-width="3.6513498220759706" stroke="#f7f4e9" stroke-linecap="round" fill="None" d="M 271.70445150716114 0 v 192.46920335792188 m 0 110.21182894410651 v 198.90055357208914 m 0 90.26212907297058 v 66.47819089856466 m 0 88.59768697537483 v 237.76890337286827 m 0 69.19464811092834 v 128.6428375845655 m 0 112.95886715997848 v 160.31042215476177 m 0 73.5680668022386 v 163.4568996302172 m 0 70.54703748470241"/>
      <path stroke-width="3.002983395711505" stroke="#f7f4e9" stroke-linecap="round" fill="None" d="M 285.03161811605486 0 v 143.97314358931266 m 0 61.80506892438102 v 143.55060226197728 m 0 106.79293475664171 v 211.67504607124826 m 0 81.23290993603531 v 330.7963725936361 m 0 130.09723004552336 v 406.31940742773065 m 0 53.8231232700476"/>
      <path stroke-width="4.524134786664989" stroke="#f7f4e9" stroke-linecap="round" fill="None" d="M 298.79517720724306 0 v 85.25753101827713 m 0 66.04023640355436 v 222.21281806024624 m 0 132.18547737913102 v 86.98212484608838 m 0 116.67723903447079 v 192.10729531915416 m 0 112.35450041008707 v 59.513471035413936 m 0 98.95153043786958 v 195.65434619003324 m 0 77.24139283365567 v 198.3329361657254 m 0 61.36173844657192"/>
      <path stroke-width="3.5128867205108567" stroke="#f7f4e9" stroke-linecap="round" fill="None" d="M 312.813687960831 0 v 274.6234005114809 m 0 82.24939642506064 v 142.49112855941226 m 0 80.85932844248032 v 118.17536197964958 m 0 58.09714184693699 v 56.13493790205037 m 0 103.6429604667876 v 216.8661326229548 m 0 117.11255875342343 v 72.70240410527563 m 0 69.43355116356345 v 218.47555837642287 m 0 62.68749287572061"/>
      <path stroke-width="7.207810256899833" stroke="#f7f4e9" stroke-linecap="round" fill="None" d="M 328.17403644953635 0 v 346.3008725315741 m 0 101.15304250661687 v 56.32698840713726 m 0 108.48275260405698 v 98.17494111202137 m 0 81.90107439339334 v 205.84414679061004 m 0 110.19716463861857 v 49.44264822202732 m 0 77.10646925355994 v 11.020947919662024 m 0 65.00555319767884 v 55.703192857429116 m 0 108.34413739560542 v 96.61612102329181 m 0 58.99828437966908"/>
      <path stroke-width="4.761468370025586" stroke="#f7f4e9" stroke-linecap="round" fill="None" d="M 344.15867576299905 0 v 8.848064131944355 m 0 55.02884058538997 v 44.130954225028496 m 0 80.56090974197222 v 134.42367694820643 m 0 68.99477590242402 v 218.27799360435756 m 0 64.72930728162983 v 91.54985335846725 m 0 70.28518100057849 v 13.700105480435235 m 0 81.65788668454935 v 14.163503526256308 m 0 93.51756545072595 v 136.46293899939437 m 0 75.99022472525665 v 320.3642114017553 m 0 99.62757349194307"/>
      <path stroke-width="3.2114159344401942" stroke="#f7f4e9" stroke-linecap="round" fill="None" d="M 358.14511791523194 0 v 100.06503155890864 m 0 93.2387395609789 v 249.11938935201368 m 0 90.61319863100907 v 204.9729575480837 m 0 91.13626583017025 v 99.02382967661167 m 0 88.82322061686912 v 239.80509609498273 m 0 111.35775186194121 v 236.69956562081362 m 0 61.11638580924192"/>
      <path stroke-width="5.2688155956289" stroke="#f7f4e9" stroke-linecap="round" fill="None" d="M 372.3852336802665 0 v 264.4903044725858 m 0 63.18251787733975 v 297.9854010310095 m 0 63.99349612861464 v 63.1867805520302 m 0 70.07733679812404 v 163.43531519102177 m 0 62.03661735114075 v 103.17200498204247 m 0 122.10297840986392 v 99.3412197766963 m 0 132.66414733415425 v 275.1614805274926 m 0 63.0207087271935"/>
      <path stroke-width="3.0488264926391238" stroke="#f7f4e9" stroke-linecap="round" fill="None" d="M 386.5440547244005 0 v 145.7603010406236 m 0 94.88826982326098 v 41.505137392035124 m 0 90.10571191065922 v 33.66285646121945 m 0 130.66441275973878 v 162.582779343726 m 0 113.08926619685931 v 302.91783781892383 m 0 73.55812816248803 v 47.0855727983775 m 0 92.05282044337338 v 179.47316324262977 m 0 78.74498650596554 v 94.79801171785984 m 0 93.27643081481425"/>
      <path stroke-width="2.7746146228352115" stroke="#f7f4e9" stroke-linecap="round" fill="None" d="M 399.45577528213767 0 v 41.31305658493452 m 0 83.56645287291299 v 379.71860034448224 m 0 124.67701927557364 v 238.25897429020932 m 0 59.50214413261442 v 264.22889061644196 m 0 84.22623719555476 v 66.28384015854303 m 0 136.20971189737205 v 26.75579741336386 m 0 59.44980227345112 v 269.3500084035248 m 0 72.39036292026272"/>
      <path stroke-width="3.377096981721144" stroke="#f7f4e9" stroke-linecap="round" fill="None" d="M 412.53163108441584 0 v 51.91114930762426 m 0 117.56988137609082 v 328.06522383499384 m 0 135.2411248776081 v 186.6311437539844 m 0 112.34509154028936 v 110.35027636737902 m 0 72.3307881575516 v 78.84922497403574 m 0 53.65720655701284 v 291.6656171941792 m 0 59.00002444102541 v 446.4925658973153 m 0 135.54235292802943"/>
      <path stroke-width="2.6616064309440155" stroke="#f7f4e9" stroke-linecap="round" fill="None" d="M 425.55098279074844 0 v 23.368238728096046 m 0 71.95688595944982 v 138.67343601196737 m 0 82.41818284655093 v 179.90757489551132 m 0 85.35934586141128 v 135.35055901043734 m 0 101.93338810363628 v 180.9276450419951 m 0 70.74626231072911 v 20.928114582590922 m 0 86.36467995895437 v 67.64442772360067 m 0 81.71490934370327 v 128.72782493090563 m 0 77.31238243998438 v 106.2837013802529 m 0 107.2612272812188"/>
      <path stroke-width="4.2849809511915495" stroke="#f7f4e9" stroke-linecap="round" fill="None" d="M 439.02427648181623 0 v 336.03594711375973 m 0 70.43989797115515 v 39.364926701686656 m 0 65.63733449744765 v 264.41472523417286 m 0 75.33577927478765 v 57.61553210164635 m 0 65.38878037510446 v 97.2169722697294 m 0 99.05630034114606 v 117.97817238245993 m 0 95.7148870963718 v 68.71819253287953 m 0 67.37404898739422 v 62.89629286899471 m 0 143.38621063991118"/>
      <path stroke-width="2.003950481525368" stroke="#f7f4e9" stroke-linecap="round" fill="None" d="M 452.1687421981747 0 v 292.81291160058754 m 0 145.36654512725227 v 12.39760550991906 m 0 79.95106943976371 v 13.319959819619363 m 0 65.74059365990456 v 250.97017457288072 m 0 75.14409221811398 v 175.7051926868126 m 0 91.94580416183486 v 171.5961254403733 m 0 150.77749399548304 v 21.408272227568517 m 0 76.08437172548902 v 20.4975711668295 m 0 62.18452016439441"/>
      <path stroke-width="2.068450180379977" stroke="#f7f4e9" stroke-linecap="round" fill="None" d="M 464.2049425291274 0 v 152.6563023417356 m 0 131.98590262163623 v 83.18219680059335 m 0 125.63587008693968 v 184.87860905396042 m 0 88.89138969311432 v 79.7893536069302 m 0 73.83105455439373 v 115.00210256929753 m 0 61.428575462151414 v 313.3839726259431 m 0 90.31742653731038 v 114.84332508172287 m 0 60.89958858562447"/>
      <path stroke-width="6.217336147311688" stroke="#f7f4e9" stroke-linecap="round" fill="None" d="M 478.3478356929732 0 v 260.24687646100676 m 0 108.58453844871455 v 48.726344194800944 m 0 150.03427150194383 v 223.6221521540377 m 0 88.18746710627799 v 209.23838315643746 m 0 88.21810951073017 v 109.3812589220717 m 0 102.86789211494819 v 204.62217834406195 m 0 96.7693909450552"/>
      <path stroke-width="6.17282508995892" stroke="#f7f4e9" stroke-linecap="round" fill="None" d="M 494.5429163116085 0 v 223.2082582861292 m 0 103.93640723591977 v 68.40458608109542 m 0 94.34447519481526 v 71.13331079128326 m 0 93.24089404617666 v 343.65869904135945 m 0 121.51418579066507 v 318.4765163587384 m 0 106.42817109198 v 249.70791111645403 m 0 57.76437614670514"/>
      <path stroke-width="4.516162103378356" stroke="#f7f4e9" stroke-linecap="round" fill="None" d="M 509.88740990827716 0 v 25.99070816772918 m 0 107.74096412458198 v 32.556408493308744 m 0 120.51111342566958 v 220.05462572341756 m 0 63.40570888040012 v 379.13506367674535 m 0 95.23351407319001 v 10.91448090538374 m 0 107.05783907261389 v 373.49973793828576 m 0 127.29258020127816"/>
      <path stroke-width="4.136804044078048" stroke="#f7f4e9" stroke-linecap="round" fill="None" d="M 524.2138929820053 0 v 111.12118665338927 m 0 88.06795429402572 v 268.7225187829426 m 0 69.10886647404324 v 161.5212252005349 m 0 64.77814087455948 v 372.5658268677171 m 0 70.1898032892226 v 219.04714160735483 m 0 67.23643121639337 v 85.53041934873525 m 0 103.58363835970215"/>
      <path stroke-width="1.723410049221909" stroke="#f7f4e9" stroke-linecap="round" fill="None" d="M 537.1440000286552 0 v 83.88997548780999 m 0 98.17901193929632 v 131.17140334653223 m 0 101.40155289099424 v 114.13254392341494 m 0 64.00221857169441 v 175.80116584507942 m 0 60.38359831974936 v 126.78243743127997 m 0 52.138619129593884 v 250.20790434260144 m 0 83.73563485930183 v 280.5378683273329 m 0 113.52786916534006"/>
      <path stroke-width="4.373029420642196" stroke="#f7f4e9" stroke-linecap="round" fill="None" d="M 550.1922197635873 0 v 89.34950651170033 m 0 117.05770773037978 v 16.788249138916566 m 0 54.42283570126164 v 190.32249810496916 m 0 65.87782172735434 v 232.6235822171512 m 0 94.68957240084241 v 145.4756094638858 m 0 71.86667720857328 v 19.77500129449164 m 0 63.594633432608234 v 226.07573203719443 m 0 123.06943394266277 v 297.2243407611818 m 0 95.00169505098208"/>
      <path stroke-width="5.066659779878543" stroke="#f7f4e9" stroke-linecap="round" fill="None" d="M 564.9120643638478 0 v 63.463227763266715 m 0 83.06257892004139 v 313.9180984073289 m 0 132.63052054934025 v 265.3722654504739 m 0 78.16625267803634 v 66.33857911712767 m 0 73.26614457280225 v 60.33761728721055 m 0 91.3441032170434 v 126.92510782680222 m 0 92.56447378583502 v 327.32315531316266 m 0 56.85800735498748"/>
      <path stroke-width="2.3602843004443606" stroke="#f7f4e9" stroke-linecap="round" fill="None" d="M 578.6255364040093 0 v 398.42646491348387 m 0 109.52807742139983 v 230.812064832163 m 0 74.57080333935004 v 71.19041459746595 m 0 66.34518299444989 v 190.3016398748302 m 0 81.80665790362504 v 139.03617631368556 m 0 79.01107662491154 v 176.3681481798984 m 0 67.37995156137177"/>
      <path stroke-width="2.7743046120787143" stroke="#f7f4e9" stroke-linecap="round" fill="None" d="M 591.1928308602709 0 v 300.70658569291663 m 0 75.59262678771188 v 248.52259619591632 m 0 72.46668832856086 v 111.04593960297687 m 0 65.05513200645457 v 42.06530984561579 m 0 114.35978558908288 v 242.3959730534815 m 0 81.26600208229739 v 200.09296010003803 m 0 60.43425308460583 v 96.2618322525737 m 0 90.65318701772817"/>
      <path stroke-width="4.099606962172377" stroke="#f7f4e9" stroke-linecap="round" fill="None" d="M 604.6297866473965 0 v 398.6839366335137 m 0 115.16876417220419 v 91.8954237819267 m 0 96.50546049446787 v 198.1147288730573 m 0 127.28393442384653 v 105.29125371721965 m 0 72.99526439521156 v 247.03231544751216 m 0 144.09254697301176 v 191.72646128216317 m 0 110.02548483097604"/>
      <path stroke-width="1.6293069951247852" stroke="#f7f4e9" stroke-linecap="round" fill="None" d="M 617.4942436260451 0 v 156.33313453583378 m 0 113.37655621906327 v 230.29675245846397 m 0 62.07785288826953 v 469.9936950892113 m 0 72.30708892410051 v 261.8911877857485 m 0 88.19376059919313 v 121.98475273986405 m 0 63.9455282584494"/>
      <path stroke-width="1.970807353078349" stroke="#f7f4e9" stroke-linecap="round" fill="None" d="M 629.2943008001466 0 v 171.3828839772188 m 0 59.811062260382414 v 249.3326642884317 m 0 90.76724457056925 v 142.21769453062421 m 0 106.1610698054913 v 92.62381194084568 m 0 87.01372305531214 v 190.21444569745103 m 0 90.34070170355096 v 65.44073186788023 m 0 86.25696907545526 v 384.21573353045864 m 0 84.9912139191363"/>
      <path stroke-width="2.564381211644263" stroke="#f7f4e9" stroke-linecap="round" fill="None" d="M 641.5618950825079 0 v 223.44135055703967 m 0 112.37271294473406 v 227.0918172463056 m 0 70.91444646801705 v 212.1527465430131 m 0 118.00382281343954 v 87.6933933982056 m 0 62.670416075361835 v 132.47064350391224 m 0 54.17442274455076 v 30.047998148508 m 0 74.46192057650505 v 124.58563273109134 m 0 65.9891714978036 v 251.47587770642053 m 0 82.66532147045545"/>
      <path stroke-width="6.483090216906416" stroke="#f7f4e9" stroke-linecap="round" fill="None" d="M 656.0856307967833 0 v 354.2798188801313 m 0 113.72945356308524 v 155.76860679909734 m 0 106.51158034155085 v 201.2720687725099 m 0 105.5451584050848 v 38.459422517822645 m 0 142.81818779678946 v 18.057263559281445 m 0 71.08889098599995 v 256.64158279653014 m 0 66.48810620878803"/>
      <path stroke-width="5.560819764374701" stroke="#f7f4e9" stroke-linecap="round" fill="None" d="M 672.1075857874239 0 v 250.1777715435879 m 0 101.24710843751552 v 258.851976350121 m 0 124.9372533105357 v 161.92485417554892 m 0 57.95065701042938 v 54.017858403598765 m 0 133.74085307758713 v 196.4253688708095 m 0 112.99045358392875 v 94.6966937539715 m 0 62.044637063828354 v 103.9161604017521 m 0 61.95156701612268"/>
      <path stroke-width="5.0334206242552035" stroke="#f7f4e9" stroke-linecap="round" fill="None" d="M 687.4047059817389 0 v 180.9579606521988 m 0 78.3672039007233 v 122.00958719844014 m 0 94.13835109129145 v 9.70655840845817 m 0 69.07728008486126 v 268.1987602904706 m 0 65.07258806708106 v 67.0572822952438 m 0 129.54661091405714 v 173.8766992911915 m 0 73.48703254635208 v 15.860148836242182 m 0 81.32961710873008 v 404.6852048807523 m 0 130.53661306230146"/>
      <path stroke-width="1.55245652924634" stroke="#f7f4e9" stroke-linecap="round" fill="None" d="M 700.6976445584896 0 v 44.59125869805954 m 0 91.14276590132289 v 148.25237454240164 m 0 89.6819908540183 v 12.912160590601339 m 0 59.78521545272099 v 13.686555733524802 m 0 75.24004970314229 v 158.30224120546185 m 0 122.66477764472049 v 84.56880319011168 m 0 143.14025067762506 v 133.55224776898888 m 0 104.37320570266749 v 387.988091345391 m 0 118.45296460603424"/>
      <path stroke-width="3.3871058482214775" stroke="#f7f4e9" stroke-linecap="round" fill="None" d="M 713.1674257472234 0 v 271.74864452164644 m 0 81.90557261688969 v 159.95126141204452 m 0 63.75457815128261 v 40.8911581322404 m 0 70.17336558779019 v 132.5129742017321 m 0 92.34113349506983 v 253.36482390121844 m 0 62.20394571904373 v 87.82090918548828 m 0 97.70904752092906 v 29.57557503025406 m 0 75.86185438826251 v 177.95609204567413 m 0 60.49391593263656"/>
      <path stroke-width="2.197691225904093" stroke="#f7f4e9" stroke-linecap="round" fill="None" d="M 725.9598242842861 0 v 46.22260449409043 m 0 120.16745568642234 v 105.30147207117001 m 0 72.51794059255823 v 149.90688756310135 m 0 138.52734189939855 v 255.8907161982498 m 0 53.23947813465286 v 75.7899906225797 m 0 93.49336839378651 v 170.29259173051426 m 0 64.36742923122956 v 42.31889760786102 m 0 90.9714385344366 v 52.90936010980772 m 0 58.97037827053685 v 175.49674512534773 m 0 94.86372250508317"/>
      <path stroke-width="4.588917374541556" stroke="#f7f4e9" stroke-linecap="round" fill="None" d="M 739.3531285845089 0 v 80.93894444733151 m 0 67.34150318998861 v 67.01399694423161 m 0 108.94434948331038 v 158.00960874191009 m 0 82.81691786437904 v 35.3150064141511 m 0 60.0602428838739 v 62.42519960586063 m 0 66.98271545859933 v 121.99392118444219 m 0 78.98354643169253 v 61.33145772838743 m 0 111.38472071923995 v 141.86410630199734 m 0 78.86308068371332 v 114.71766851125061 m 0 64.76115637364005 v 51.68744918272761 m 0 77.51864601055988"/>
      <path stroke-width="3.1963458280063937" stroke="#f7f4e9" stroke-linecap="round" fill="None" d="M 753.2457601857828 0 v 288.6791965225409 m 0 62.422950205942335 v 8.31891404431333 m 0 57.7255416535986 v 296.95725782648145 m 0 137.05230848977448 v 96.18295018923935 m 0 129.21058788454664 v 286.28363215222157 m 0 80.53899836703903 v 246.03257150108104 m 0 61.36841673190054"/>
      <path stroke-width="2.9610835013825394" stroke="#f7f4e9" stroke-linecap="round" fill="None" d="M 766.3244748504773 0 v 122.26250376940231 m 0 103.39183904259144 v 255.56251650073304 m 0 133.61468928448122 v 105.04409568393825 m 0 82.72203159991082 v 452.0546673347749 m 0 70.73469173645654 v 83.8524746472296 m 0 125.63514412472514 v 177.63851032084466 m 0 127.11620693706917"/>
      <path stroke-width="2.3551506593912013" stroke="#f7f4e9" stroke-linecap="round" fill="None" d="M 778.9825919308641 0 v 108.41636715803763 m 0 53.508668288654796 v 46.31106665429357 m 0 119.81769919632902 v 134.458580106218 m 0 96.65037275936274 v 169.69787237288432 m 0 92.4038271263304 v 96.99252268858632 m 0 106.86272226065734 v 331.1936830010038 m 0 94.44754822672024 v 38.25426948375609 m 0 53.060642520668964 v 332.10511230987345 m 0 112.44067698319341"/>
      <path stroke-width="4.348884697842141" stroke="#f7f4e9" stroke-linecap="round" fill="None" d="M 792.3346096094808 0 v 182.10097727822313 m 0 78.21908371656546 v 240.68764798495167 m 0 58.23924065560031 v 71.6242706067254 m 0 123.33794853573747 v 298.29060578083863 m 0 119.66635083145326 v 265.2841540095619 m 0 76.07181987869977 v 135.89693566328697 m 0 138.9304352996206"/>
      <path stroke-width="4.479644614171729" stroke="#f7f4e9" stroke-linecap="round" fill="None" d="M 806.7488742654878 0 v 202.51491721942756 m 0 63.39433945582208 v 150.1324286820087 m 0 90.43157802860965 v 174.92548928917847 m 0 56.6313289484969 v 320.2109921017075 m 0 136.1694496789294 v 169.95097811131873 m 0 126.16533672329437 v 350.0228340818322 m 0 61.97053897251577"/>
      <path stroke-width="3.6342968899839905" stroke="#f7f4e9" stroke-linecap="round" fill="None" d="M 820.8058450175656 0 v 73.2602788029398 m 0 70.76687671159627 v 213.74712671441293 m 0 54.99502274646644 v 460.5881156030955 m 0 107.86095069393575 v 59.56612455736925 m 0 83.78781396946316 v 167.19425981629107 m 0 101.76943781946922 v 147.5086591809306 m 0 85.87199999008094 v 235.20841518782512 m 0 83.63750599410936"/>
      <path stroke-width="3.862829129805796" stroke="#f7f4e9" stroke-linecap="round" fill="None" d="M 834.5544080274605 0 v 57.335940773951734 m 0 116.4631489704935 v 11.527022699178431 m 0 57.17235336968734 v 13.63276511602833 m 0 60.188641677683094 v 131.3852075038589 m 0 90.10719484586048 v 25.635354905296502 m 0 100.66749666621288 v 359.11407769291657 m 0 55.03582568810362 v 123.7798397321193 m 0 63.169528272307744 v 180.7800625015787 m 0 61.9434486711063 v 88.070600966309 m 0 56.52781397895973"/>
      <path stroke-width="3.8855842108222793" stroke="#f7f4e9" stroke-linecap="round" fill="None" d="M 848.4286146977745 0 v 332.3876063558883 m 0 103.2915409575229 v 214.4848406694626 m 0 59.44802237081658 v 66.07920191840543 m 0 84.16659342739798 v 146.91196933114853 m 0 59.333461716988566 v 344.1758779751239 m 0 114.89355387344186 v 125.24556763923147 m 0 95.18511776849456"/>
      <path stroke-width="3.429593833015811" stroke="#f7f4e9" stroke-linecap="round" fill="None" d="M 862.0862037196936 0 v 63.6331003313614 m 0 66.20457293918942 v 267.3829687462142 m 0 90.08024323630143 v 142.14271242812984 m 0 84.15699391298261 v 71.10932650644139 m 0 94.90056408872307 v 401.5537618547396 m 0 66.91618989627995 v 290.54283232012546 m 0 94.14410267930947"/>
      <path stroke-width="4.793119284032003" stroke="#f7f4e9" stroke-linecap="round" fill="None" d="M 876.1975602782175 0 v 302.7877423754038 m 0 126.10307682548765 v 409.83630030680104 m 0 136.72068324533794 v 103.93998199034002 m 0 81.05080524235312 v 116.98564227669037 m 0 67.927808124238 v 383.22232881869274 m 0 57.01292049843325"/>
      <path stroke-width="3.6944376269779617" stroke="#f7f4e9" stroke-linecap="round" fill="None" d="M 890.4413387337224 0 v 61.61988617673634 m 0 71.56916948987491 v 17.203526455299404 m 0 82.48118611124855 v 94.95051724470473 m 0 83.5924774117708 v 424.47582766299905 m 0 99.75839108885906 v 96.86907337721581 m 0 77.89926528709353 v 134.09598502189903 m 0 63.075782920062196 v 269.2417259090843 m 0 67.98082684506147"/>
      <path stroke-width="1.975846658195018" stroke="#f7f4e9" stroke-linecap="round" fill="None" d="M 903.2764808763089 0 v 58.13271384562995 m 0 81.08402541627196 v 406.121705084264 m 0 61.64218439614762 v 33.07020987467596 m 0 69.35684656886139 v 131.8621721782087 m 0 53.54970872874673 v 154.32024752699476 m 0 112.0171074274872 v 159.40832937100546 m 0 96.97316340887187 v 243.82075500252205 m 0 60.69360051955889"/>
      <path stroke-width="5.054453053581538" stroke="#f7f4e9" stroke-linecap="round" fill="None" d="M 916.7916307321972 0 v 385.4295316161597 m 0 72.19582013462409 v 11.139776458030003 m 0 102.55022927478714 v 258.03748180408735 m 0 56.98770657533209 v 304.41698580478385 m 0 123.6217745124346 v 391.4400759716256 m 0 112.37720850231844"/>
      <path stroke-width="6.165248212775063" stroke="#f7f4e9" stroke-linecap="round" fill="None" d="M 932.4014813653755 0 v 117.43248450001093 m 0 99.23294248710371 v 29.830498069978937 m 0 110.38019726551704 v 336.2084796075904 m 0 113.26119710892321 v 67.55736756574399 m 0 127.89422761088214 v 158.1799706064685 m 0 141.21562669483137 v 78.0004045615537 m 0 94.94480111809814 v 290.42980514942616 m 0 68.0502437336015"/>
      <path stroke-width="4.381136528092232" stroke="#f7f4e9" stroke-linecap="round" fill="None" d="M 947.6746737358092 0 v 93.93193102324722 m 0 138.59592204731976 v 25.09953234846084 m 0 70.90665779209552 v 10.695293496217289 m 0 59.7254717921838 v 223.84215207583108 m 0 73.89835207161347 v 262.91185228866203 m 0 107.31349158472439 v 87.52473497517614 m 0 71.69791037891629 v 246.85617934316633 m 0 82.11701658598928 v 85.07618708852307 m 0 90.59781427891606"/>
      <path stroke-width="6.030378823453363" stroke="#f7f4e9" stroke-linecap="round" fill="None" d="M 962.8804314115819 0 v 342.4461991005283 m 0 57.3806819656064 v 89.53495633679515 m 0 71.28134094320828 v 81.84020004268643 m 0 72.08181247977676 v 22.31856362953954 m 0 77.24525635634834 v 12.719673562406978 m 0 93.31369134153063 v 193.21723841380822 m 0 102.15601923949805 v 190.67117678096096 m 0 109.10871896640232 v 299.602941423289 m 0 74.55860216735782"/>
      <path stroke-width="1.6506190087116615" stroke="#f7f4e9" stroke-linecap="round" fill="None" d="M 976.7209303276643 0 v 261.726744003725 m 0 56.467463473959484 v 112.26084811823752 m 0 91.85462810188119 v 119.50915022255158 m 0 119.70241781944144 v 286.7215432307177 m 0 76.26512466149546 v 284.8412451432358 m 0 119.98178936886656 v 26.665509772444704 m 0 77.06940592180455"/>
      <path stroke-width="1.9759923908165749" stroke="#f7f4e9" stroke-linecap="round" fill="None" d="M 988.5342360274284 0 v 285.14707988862233 m 0 78.86507383493186 v 79.8143326546487 m 0 59.52429176906725 v 208.80919149447107 m 0 57.870015548337435 v 162.29092766282068 m 0 96.8455419632524 v 66.50409459002668 m 0 85.70412626272477 v 92.43957023605576 m 0 54.647440049367255 v 322.8011082112458 m 0 90.7067446489341"/>
      <path stroke-width="2.1146836766596264" stroke="#f7f4e9" stroke-linecap="round" fill="None" d="M 1000.5795740611665 0 v 474.8014545756548 m 0 110.66358133481457 v 159.80492397530637 m 0 96.52083985881245 v 159.3869792871846 m 0 137.41240493218524 v 94.68086059703295 m 0 110.41635040668646 v 234.12084679048084 m 0 104.90274405345689"/>
      <path stroke-width="2.3441249186408157" stroke="#f7f4e9" stroke-linecap="round" fill="None" d="M 1012.8089783588166 0 v 239.84222367841872 m 0 75.82807466956471 v 378.8096036952717 m 0 110.8640289410154 v 301.85471071660544 m 0 97.24859479659146 v 265.5960190491096 m 0 96.03495869726751 v 143.43729944557342 m 0 66.47421586515149"/>
      <path stroke-width="1.8138209905635934" stroke="#f7f4e9" stroke-linecap="round" fill="None" d="M 1024.8879513134189 0 v 351.92609032830586 m 0 101.39245329714373 v 143.017551880773 m 0 92.52321132706587 v 22.592052104457707 m 0 103.75577370407645 v 118.64550763191681 m 0 68.0892501137236 v 109.8823786006998 m 0 99.71778501495349 v 210.7766524612423 m 0 69.31170820522264 v 209.30774427540356 m 0 98.76382831172825"/>
      <path stroke-width="2.621402366260196" stroke="#f7f4e9" stroke-linecap="round" fill="None" d="M 1037.1055629918308 0 v 151.46514647695108 m 0 86.98674285097617 v 175.57211538179277 m 0 84.25269030111124 v 234.52809176714015 m 0 125.70168182030724 v 65.67821875809098 m 0 100.34278998434581 v 258.90344632189215 m 0 59.04303686633095 v 191.93926719481257 m 0 94.92710062194976"/>
      <path stroke-width="4.976595605079135" stroke="#f7f4e9" stroke-linecap="round" fill="None" d="M 1050.9045619775004 0 v 144.3447324463659 m 0 124.31859370931723 v 274.4639102532415 m 0 59.74226863066409 v 139.90608410314314 m 0 78.10163519394025 v 84.87361111402129 m 0 84.67878166192669 v 176.89492885136875 m 0 89.07838329124472 v 448.4287551790187 m 0 76.8045727472845"/>
      <path stroke-width="3.92122102706409" stroke="#f7f4e9" stroke-linecap="round" fill="None" d="M 1065.353470293572 0 v 181.44469501797906 m 0 88.7858145422311 v 36.341983008996834 m 0 117.75584540114036 v 62.77703986402128 m 0 73.29392335423071 v 46.34747625632141 m 0 76.66268162828067 v 29.787903337464726 m 0 88.07751194898223 v 50.9235942867903 m 0 87.6047819709922 v 299.3576052675491 m 0 74.00415915818495 v 340.84868414137 m 0 65.53034083937133"/>
      <path stroke-width="3.723198986168955" stroke="#f7f4e9" stroke-linecap="round" fill="None" d="M 1079.1756803001883 0 v 83.04829440860492 m 0 117.3049266405051 v 28.997183809194354 m 0 98.65950170269605 v 187.5799356071983 m 0 66.93834634892009 v 26.637700706786475 m 0 56.24540832916754 v 121.54955397493808 m 0 84.42535402133664 v 381.74147984935473 m 0 93.64061134733744 v 26.809783539350562 m 0 67.41282759082264 v 323.0187718402295 m 0 108.5707027464577"/>
      <path stroke-width="3.931236747377554" stroke="#f7f4e9" stroke-linecap="round" fill="None" d="M 1093.0028981669616 0 v 63.19003308500502 m 0 102.38975570968277 v 117.86429473653605 m 0 65.19737803424769 v 116.24067421627433 m 0 67.31982258657266 v 185.6211141320544 m 0 83.51186914721912 v 317.1844121846369 m 0 83.36718603396176 v 442.1155889522142 m 0 108.1820551995098"/>
    </g>
  </g>
</svg>
