<svg width="512" height="512" xmlns="http://www.w3.org/2000/svg">
  <rect fill="#fff" stroke="#000" stroke-width="2" x="0" y="0" width="512" height="512"/>
  <g transform="matrix(0.7071067811865475 0.7071067811865476 -0.7071067811865476 0.7071067811865475 -362.0386719675124 -5.684341886080802e-14)">
    <path stroke-width="4" stroke="black" stroke-linecap="round" fill="None" d="M 0 0 v 96 m 0 23 v 139 m 0 35 v 108 m 0 6 v 125 m 0 19 v 120 m 0 19 v 138 m 0 20"/>
    <path stroke-width="2" stroke="black" stroke-linecap="round" fill="None" d="M 15 0 v 93 m 0 14 v 122 m 0 34 v 129 m 0 10 v 112 m 0 8 v 110 m 0 39 v 138 m 0 36"/>
    <path stroke-width="2" stroke="black" stroke-linecap="round" fill="None" d="M 30 0 v 120 m 0 27 v 54 m 0 14 v 115 m 0 37 v 97 m 0 6 v 29 m 0 20 v 95 m 0 3 v 87 m 0 6 v 148 m 0 8"/>
    <path stroke-width="3" stroke="black" stroke-linecap="round" fill="None" d="M 45 0 v 128 m 0 14 v 147 m 0 13 v 117 m 0 28 v 97 m 0 38 v 123 m 0 36 v 118 m 0 6"/>
    <path stroke-width="4" stroke="black" stroke-linecap="round" fill="None" d="M 60 0 v 79 m 0 10 v 36 m 0 31 v 117 m 0 9 v 82 m 0 20 v 145 m 0 25 v 75 m 0 21 v 55 m 0 21 v 126 m 0 14"/>
    <path stroke-width="4" stroke="black" stroke-linecap="round" fill="None" d="M 75 0 v 127 m 0 10 v 118 m 0 25 v 78 m 0 12 v 121 m 0 26 v 57 m 0 31 v 139 m 0 14 v 114 m 0 31"/>
    <path stroke-width="2" stroke="black" stroke-linecap="round" fill="None" d="M 90 0 v 124 m 0 35 v 95 m 0 30 v 114 m 0 41 v 149 m 0 8 v 117 m 0 25 v 75 m 0 41"/>
    <path stroke-width="4" stroke="black" stroke-linecap="round" fill="None" d="M 105 0 v 136 m 0 29 v 112 m 0 37 v 86 m 0 29 v 56 m 0 32 v 69 m 0 15 v 35 m 0 41 v 68 m 0 5 v 57 m 0 25"/>
    <path stroke-width="4" stroke="black" stroke-linecap="round" fill="None" d="M 120 0 v 131 m 0 13 v 127 m 0 16 v 65 m 0 42 v 48 m 0 9 v 67 m 0 34 v 27 m 0 38 v 108 m 0 42 v 125 m 0 26"/>
    <path stroke-width="2" stroke="black" stroke-linecap="round" fill="None" d="M 135 0 v 144 m 0 20 v 144 m 0 26 v 93 m 0 13 v 52 m 0 38 v 129 m 0 6 v 109 m 0 10 v 55 m 0 18"/>
    <path stroke-width="4" stroke="black" stroke-linecap="round" fill="None" d="M 150 0 v 52 m 0 33 v 28 m 0 8 v 53 m 0 36 v 80 m 0 10 v 103 m 0 22 v 70 m 0 31 v 72 m 0 11 v 44 m 0 16 v 85 m 0 7 v 33 m 0 25 v 121 m 0 11"/>
    <path stroke-width="4" stroke="black" stroke-linecap="round" fill="None" d="M 165 0 v 71 m 0 34 v 63 m 0 9 v 107 m 0 35 v 125 m 0 34 v 83 m 0 14 v 95 m 0 41 v 81 m 0 19 v 52 m 0 11"/>
    <path stroke-width="4" stroke="black" stroke-linecap="round" fill="None" d="M 180 0 v 121 m 0 26 v 143 m 0 42 v 93 m 0 33 v 123 m 0 39 v 58 m 0 22 v 67 m 0 16 v 98 m 0 35"/>
    <path stroke-width="4" stroke="black" stroke-linecap="round" fill="None" d="M 195 0 v 55 m 0 5 v 95 m 0 38 v 87 m 0 25 v 62 m 0 8 v 41 m 0 13 v 51 m 0 11 v 64 m 0 37 v 95 m 0 18 v 46 m 0 30 v 134 m 0 31"/>
    <path stroke-width="3" stroke="black" stroke-linecap="round" fill="None" d="M 210 0 v 29 m 0 36 v 26 m 0 11 v 100 m 0 29 v 71 m 0 27 v 31 m 0 40 v 44 m 0 26 v 90 m 0 33 v 25 m 0 11 v 143 m 0 37 v 146 m 0 31"/>
    <path stroke-width="4" stroke="black" stroke-linecap="round" fill="None" d="M 225 0 v 142 m 0 18 v 34 m 0 10 v 109 m 0 11 v 136 m 0 5 v 117 m 0 10 v 138 m 0 30 v 132 m 0 37"/>
    <path stroke-width="4" stroke="black" stroke-linecap="round" fill="None" d="M 240 0 v 74 m 0 43 v 31 m 0 30 v 125 m 0 37 v 149 m 0 37 v 29 m 0 8 v 133 m 0 22 v 143 m 0 34"/>
    <path stroke-width="3" stroke="black" stroke-linecap="round" fill="None" d="M 255 0 v 142 m 0 24 v 64 m 0 40 v 33 m 0 8 v 132 m 0 10 v 78 m 0 41 v 145 m 0 10 v 82 m 0 19"/>
    <path stroke-width="3" stroke="black" stroke-linecap="round" fill="None" d="M 270 0 v 71 m 0 41 v 45 m 0 40 v 129 m 0 42 v 133 m 0 5 v 83 m 0 23 v 81 m 0 21 v 147 m 0 8"/>
    <path stroke-width="2" stroke="black" stroke-linecap="round" fill="None" d="M 285 0 v 115 m 0 38 v 127 m 0 18 v 93 m 0 23 v 134 m 0 37 v 47 m 0 17 v 60 m 0 16 v 136 m 0 10"/>
    <path stroke-width="2" stroke="black" stroke-linecap="round" fill="None" d="M 300 0 v 121 m 0 11 v 107 m 0 11 v 82 m 0 18 v 45 m 0 19 v 56 m 0 37 v 120 m 0 12 v 109 m 0 10 v 110 m 0 20"/>
    <path stroke-width="2" stroke="black" stroke-linecap="round" fill="None" d="M 315 0 v 126 m 0 32 v 56 m 0 36 v 139 m 0 36 v 54 m 0 33 v 143 m 0 24 v 49 m 0 32 v 145 m 0 4"/>
    <path stroke-width="3" stroke="black" stroke-linecap="round" fill="None" d="M 330 0 v 48 m 0 24 v 42 m 0 34 v 85 m 0 17 v 41 m 0 27 v 117 m 0 4 v 120 m 0 14 v 115 m 0 17 v 122 m 0 18"/>
    <path stroke-width="3" stroke="black" stroke-linecap="round" fill="None" d="M 345 0 v 137 m 0 28 v 121 m 0 36 v 97 m 0 4 v 88 m 0 42 v 99 m 0 39 v 141 m 0 18"/>
    <path stroke-width="4" stroke="black" stroke-linecap="round" fill="None" d="M 360 0 v 116 m 0 35 v 117 m 0 27 v 43 m 0 7 v 45 m 0 32 v 96 m 0 23 v 76 m 0 17 v 32 m 0 35 v 111 m 0 25"/>
    <path stroke-width="4" stroke="black" stroke-linecap="round" fill="None" d="M 375 0 v 130 m 0 21 v 47 m 0 39 v 66 m 0 13 v 55 m 0 26 v 58 m 0 6 v 100 m 0 16 v 81 m 0 5 v 62 m 0 16 v 110 m 0 33"/>
    <path stroke-width="4" stroke="black" stroke-linecap="round" fill="None" d="M 390 0 v 49 m 0 23 v 139 m 0 43 v 135 m 0 35 v 136 m 0 14 v 123 m 0 19 v 25 m 0 42 v 66 m 0 18"/>
    <path stroke-width="3" stroke="black" stroke-linecap="round" fill="None" d="M 405 0 v 54 m 0 5 v 47 m 0 10 v 111 m 0 22 v 99 m 0 28 v 126 m 0 32 v 93 m 0 37 v 110 m 0 12 v 29 m 0 14"/>
    <path stroke-width="3" stroke="black" stroke-linecap="round" fill="None" d="M 420 0 v 130 m 0 37 v 69 m 0 19 v 138 m 0 26 v 143 m 0 32 v 39 m 0 12 v 85 m 0 40 v 81 m 0 8"/>
    <path stroke-width="2" stroke="black" stroke-linecap="round" fill="None" d="M 435 0 v 97 m 0 31 v 93 m 0 15 v 83 m 0 5 v 128 m 0 40 v 127 m 0 27 v 39 m 0 3 v 140 m 0 20"/>
    <path stroke-width="4" stroke="black" stroke-linecap="round" fill="None" d="M 450 0 v 57 m 0 25 v 92 m 0 18 v 85 m 0 7 v 119 m 0 9 v 41 m 0 42 v 36 m 0 43 v 104 m 0 7 v 93 m 0 43 v 62 m 0 14"/>
    <path stroke-width="2" stroke="black" stroke-linecap="round" fill="None" d="M 465 0 v 80 m 0 33 v 30 m 0 27 v 45 m 0 13 v 28 m 0 28 v 62 m 0 31 v 62 m 0 31 v 70 m 0 25 v 130 m 0 12 v 39 m 0 27 v 91 m 0 7"/>
    <path stroke-width="2" stroke="black" stroke-linecap="round" fill="None" d="M 480 0 v 149 m 0 24 v 53 m 0 33 v 104 m 0 16 v 78 m 0 27 v 62 m 0 23 v 113 m 0 10 v 56 m 0 40 v 38 m 0 31"/>
    <path stroke-width="3" stroke="black" stroke-linecap="round" fill="None" d="M 495 0 v 113 m 0 10 v 120 m 0 24 v 95 m 0 40 v 40 m 0 34 v 35 m 0 34 v 71 m 0 24 v 104 m 0 31 v 117 m 0 20"/>
    <path stroke-width="3" stroke="black" stroke-linecap="round" fill="None" d="M 510 0 v 54 m 0 15 v 30 m 0 33 v 28 m 0 12 v 128 m 0 19 v 52 m 0 24 v 129 m 0 6 v 139 m 0 39 v 35 m 0 13 v 92 m 0 29"/>
    <path stroke-width="4" stroke="black" stroke-linecap="round" fill="None" d="M 525 0 v 54 m 0 15 v 34 m 0 35 v 89 m 0 24 v 137 m 0 26 v 104 m 0 34 v 44 m 0 21 v 118 m 0 32 v 106 m 0 35"/>
    <path stroke-width="3" stroke="black" stroke-linecap="round" fill="None" d="M 540 0 v 85 m 0 32 v 75 m 0 36 v 52 m 0 9 v 142 m 0 11 v 115 m 0 30 v 95 m 0 11 v 69 m 0 36 v 127 m 0 17"/>
    <path stroke-width="4" stroke="black" stroke-linecap="round" fill="None" d="M 555 0 v 47 m 0 11 v 84 m 0 23 v 50 m 0 32 v 41 m 0 38 v 126 m 0 19 v 129 m 0 7 v 91 m 0 12 v 54 m 0 10 v 34 m 0 26"/>
    <path stroke-width="4" stroke="black" stroke-linecap="round" fill="None" d="M 570 0 v 54 m 0 10 v 122 m 0 7 v 115 m 0 37 v 111 m 0 22 v 51 m 0 11 v 59 m 0 30 v 83 m 0 32 v 73 m 0 38"/>
    <path stroke-width="3" stroke="black" stroke-linecap="round" fill="None" d="M 585 0 v 118 m 0 18 v 29 m 0 37 v 101 m 0 11 v 129 m 0 30 v 55 m 0 42 v 86 m 0 28 v 51 m 0 38 v 84 m 0 28"/>
    <path stroke-width="4" stroke="black" stroke-linecap="round" fill="None" d="M 600 0 v 71 m 0 12 v 45 m 0 35 v 40 m 0 28 v 94 m 0 12 v 94 m 0 26 v 48 m 0 35 v 60 m 0 27 v 105 m 0 8 v 59 m 0 7 v 74 m 0 25"/>
    <path stroke-width="2" stroke="black" stroke-linecap="round" fill="None" d="M 615 0 v 144 m 0 26 v 108 m 0 23 v 36 m 0 22 v 66 m 0 23 v 64 m 0 30 v 128 m 0 18 v 86 m 0 28 v 40 m 0 30"/>
    <path stroke-width="2" stroke="black" stroke-linecap="round" fill="None" d="M 630 0 v 119 m 0 26 v 132 m 0 14 v 66 m 0 12 v 62 m 0 5 v 141 m 0 37 v 124 m 0 19 v 107 m 0 6"/>
    <path stroke-width="3" stroke="black" stroke-linecap="round" fill="None" d="M 645 0 v 51 m 0 40 v 99 m 0 25 v 65 m 0 14 v 118 m 0 28 v 31 m 0 23 v 56 m 0 28 v 78 m 0 28 v 136 m 0 16"/>
    <path stroke-width="2" stroke="black" stroke-linecap="round" fill="None" d="M 660 0 v 26 m 0 7 v 137 m 0 15 v 96 m 0 26 v 60 m 0 25 v 129 m 0 41 v 88 m 0 22 v 143 m 0 38"/>
    <path stroke-width="2" stroke="black" stroke-linecap="round" fill="None" d="M 675 0 v 148 m 0 33 v 92 m 0 32 v 47 m 0 22 v 96 m 0 39 v 31 m 0 12 v 86 m 0 24 v 114 m 0 10 v 105 m 0 21"/>
    <path stroke-width="4" stroke="black" stroke-linecap="round" fill="None" d="M 690 0 v 63 m 0 29 v 70 m 0 41 v 35 m 0 20 v 116 m 0 16 v 101 m 0 19 v 74 m 0 33 v 80 m 0 19 v 126 m 0 40"/>
    <path stroke-width="4" stroke="black" stroke-linecap="round" fill="None" d="M 705 0 v 43 m 0 25 v 44 m 0 21 v 37 m 0 17 v 37 m 0 34 v 146 m 0 7 v 70 m 0 10 v 110 m 0 40 v 42 m 0 31 v 106 m 0 40"/>
    <path stroke-width="3" stroke="black" stroke-linecap="round" fill="None" d="M 720 0 v 40 m 0 24 v 66 m 0 40 v 78 m 0 27 v 25 m 0 41 v 54 m 0 23 v 69 m 0 14 v 105 m 0 30 v 71 m 0 34 v 147 m 0 27"/>
  </g>
</svg>