<svg width="500" height="500" xmlns="http://www.w3.org/2000/svg">
  <mask id="region">
    <circle cx="250" cy="250" r="250" fill="white"/>
  </mask>
  <!-- discord colored background -->
  <rect x="-50" y="-50" width="600" height="600" fill="#36393E" />
  <g fill="none" stroke-linecap="round" mask="url(#region)">
    <!-- ring back -->
    <path d="M 10 250 a 240 75 0 0 1 480 0
             M 71.11456  90 a 178.88544 40 0 0 1 357.77088 0
             M 71.11456 410 a 178.88544 40 0 0 1 357.77088 0" stroke-width="20" stroke="#047"/>
    <!-- halo back -->
    <path d="M 50 250 a 200 45 0 0 1 400 0
             M 115.83592  90 a 134.16408 20 0 0 1 268.32816 0
             M 115.83592 410 a 134.16408 20 0 0 1 268.32816 0" stroke-width="5" stroke="#b91"/>
    <!-- pillar -->
    <path d="M 250 10 v 480
             M 83.59 139.06 L 250 250 L 416.41 139.06" stroke-width="7" stroke="#FFCD00"/>
    <!-- halo -->
    <path d="M 50 250 a 200 45 0 0 0 400 0
             M 115.83592  90 a 134.16408 20 0 0 0 268.32816 0
             M 115.83592 410 a 134.16408 20 0 0 0 268.32816 0" stroke-width="5" stroke="#FFCD00"/>
    <!-- ring -->
    <path d="M 10 250
             a 240 75 0 0 0 480 0
             M 71.11456  90 a 178.88544 40 0 0 0 357.77088 0
             M 71.11456 410 a 178.88544 40 0 0 0 357.77088 0" stroke-width="20" stroke="#00629B"/>
    <!-- loop -->
    <path d="M 5 250
             a 245 245 0 0 0  490 0
             a 245 245 0 0 0 -490 0" stroke-width="30" stroke="#00629B"/>
  </g>
</svg>